# xmcd
#
# Track frame offsets:
# 150
# 18838
# 32256
# 47048
# 60776
# 76608
# 94094
# 105054
# 119149
# 132177
# 149615
# 167679
# 192826
# 214201
# 227138
# 242467
# 255807
# 267949
# 281621
# 296927
#
# Disc length: 4180 seconds
#
#
# Revision: 1
# Processed by: cddbd v1.5PL3 Copyright (c) Steve Scherf et al.
# Submitted via: FreeRIP 2.52 
#
DISCID=09105214
DTITLE=Giannhs Parios - 35 Xronia CD2
DYEAR=2004
DGENRE=Salsa
TTITLE0=Να 'μουνα Θεός
TTITLE1=Σε χρειάζομαι
TTITLE2=Για πάντα μαζί
TTITLE3=Έλεγα
TTITLE4=Θάλασσα
TTITLE5=Ντάρι- Ντάρι
TTITLE6=Ποιός μωρό μου ποιός
TTITLE7=Αν δεν είχα και σένανε
TTITLE8=Πιο καλή η μοναξιά
TTITLE9=Σ' αγαπώ γιατί είσαι ωραία
TTITLE10=Κόκκινο γαρύφαλλο
TTITLE11=Μάτια μπλέ
TTITLE12=Αδιέξοδο
TTITLE13=Είσαι Θεός
TTITLE14=Μόνο αγάπη
TTITLE15=Να το πάρεις το κορίτσι
TTITLE16=Έλα μου κοπέλα μου
TTITLE17=Δεν παραδίνομαι
TTITLE18=Σαν τρελό φορτηγό
TTITLE19=Απόψε
EXTD=YEAR: 2004
EXTT0=
EXTT1=
EXTT2=
EXTT3=
EXTT4=
EXTT5=
EXTT6=
EXTT7=
EXTT8=
EXTT9=
EXTT10=
EXTT11=
EXTT12=
EXTT13=
EXTT14=
EXTT15=
EXTT16=
EXTT17=
EXTT18=
EXTT19=
PLAYORDER=
